# xmcd
#
# Track frame offsets: 
#        150
#        8758
#        19609
#        33424
#        48291
#        61232
#        73325
#        87247
#        98583
#        108311
#        126476
#        139040
#        149785
#        160509
#
# Disc length: 2353 seconds
#
# Revision: 0
# Processed by: cddbd v1.5.2PL0 Copyright (c) Steve Scherf et al.
# Submitted via: ExactAudioCopy v0.99pb4
#
DISCID=bb092f0e
DTITLE=Skip Jensen - Abscond
DYEAR=2003
DGENRE=Bluegrass
TTITLE0=Eerie Lake
TTITLE1=Abscond
TTITLE2=Ghost love
TTITLE3=Loving daddy
TTITLE4=Honey child
TTITLE5=No Matter what to do
TTITLE6=High horses
TTITLE7=Death dealers
TTITLE8=Azira
TTITLE9=Promised Land
TTITLE10=Right on time
TTITLE11=Malawi
TTITLE12=Night call
TTITLE13=On my trail
EXTD=
EXTT0=
EXTT1=
EXTT2=
EXTT3=
EXTT4=
EXTT5=
EXTT6=
EXTT7=
EXTT8=
EXTT9=
EXTT10=
EXTT11=
EXTT12=
EXTT13=
PLAYORDER=
